<svg width="81" height="81" viewBox="0 0 81 81" fill="none" xmlns="http://www.w3.org/2000/svg">
<g clip-path="url(#clip0_239_2598)">
<path d="M64.6939 73.319H2.18561C0.747157 73.319 -0.29886 71.9531 0.0768121 70.5636L14.2742 31.6403C14.5311 30.6878 15.3956 30.0259 16.3829 30.0259H78.8912C80.3297 30.0259 81 31.4001 81 32.7813L66.8027 71.7046C66.5457 72.657 65.6812 73.319 64.6939 73.319Z" fill="#EFCE4A"/>
<path d="M14.2742 31.6403C14.5311 30.6864 15.3956 30.0259 16.3829 30.0259H74.0172V20.25H12.569L4.18966 28.6293V59.2878L14.2742 31.6403Z" fill="#F4EFDC"/>
<path d="M32.9181 14.6638L27.931 7.68103H2.41883C1.08372 7.68103 0 8.76336 0 10.0999V69.7717C0.0963621 69.7745 0.192724 69.7801 0.286293 69.7857L4.18966 59.1426V28.6293L6.98276 25.8362V14.6638H32.9181Z" fill="#EBBA16"/>
<path d="M6.98276 14.6638V25.8362L12.569 20.25H71.2241V14.6638H6.98276Z" fill="#D1BF86"/>
<path d="M41.8966 27.2328H39.1034V30.0259H41.8966V27.2328Z" fill="#BFBAA5"/>
<path d="M51.6724 27.2328H48.8793V30.0259H51.6724V27.2328Z" fill="#BFBAA5"/>
<path d="M61.4483 27.2328H58.6552V30.0259H61.4483V27.2328Z" fill="#BFBAA5"/>
<path d="M22.3448 27.2328H19.5517V30.0259H22.3448V27.2328Z" fill="#BFBAA5"/>
<path d="M32.1207 27.2328H29.3276V30.0259H32.1207V27.2328Z" fill="#BFBAA5"/>
<path d="M12.569 28.6293V20.25L4.18966 28.6293H12.569Z" fill="#CEC9AE"/>
</g>
<defs>
<clipPath id="clip0_239_2598">
<rect width="81" height="81" fill="white"/>
</clipPath>
</defs>
</svg>
