<svg width="81" height="81" viewBox="0 0 81 81" fill="none" xmlns="http://www.w3.org/2000/svg">
<g clip-path="url(#clip0_239_2564)">
<path d="M64.6939 73.319H2.18561C0.747157 73.319 -0.29886 71.9531 0.0768121 70.5636L14.2742 31.6403C14.5311 30.6878 15.3956 30.0259 16.3829 30.0259H78.8912C80.3297 30.0259 81 31.4001 81 32.7813L66.8027 71.7046C66.5457 72.657 65.6812 73.319 64.6939 73.319Z" fill="#EFCE4A"/>
<path d="M14.2742 31.6403C14.5311 30.6864 15.3956 30.0259 16.3829 30.0259H74.0172V20.25H12.569L4.18966 28.6293V59.2878L14.2742 31.6403Z" fill="#F4EFDC"/>
<path d="M32.9181 14.6638L27.931 7.68103H2.41883C1.08372 7.68103 0 8.76336 0 10.0999V69.7717C0.0963621 69.7745 0.192724 69.7801 0.286293 69.7857L4.18966 59.1426V28.6293L6.98276 25.8362V14.6638H32.9181Z" fill="#EBBA16"/>
<path d="M6.98276 14.6638V25.8362L12.569 20.25H71.2241V14.6638H6.98276Z" fill="#D1BF86"/>
<path d="M41.8966 27.2328H39.1034V30.0259H41.8966V27.2328Z" fill="#BFBAA5"/>
<path d="M51.6724 27.2328H48.8793V30.0259H51.6724V27.2328Z" fill="#BFBAA5"/>
<path d="M61.4483 27.2328H58.6552V30.0259H61.4483V27.2328Z" fill="#BFBAA5"/>
<path d="M22.3448 27.2328H19.5517V30.0259H22.3448V27.2328Z" fill="#BFBAA5"/>
<path d="M32.1207 27.2328H29.3276V30.0259H32.1207V27.2328Z" fill="#BFBAA5"/>
<path d="M12.569 28.6293V20.25L4.18966 28.6293H12.569Z" fill="#CEC9AE"/>
<g opacity="0.5" clip-path="url(#clip1_239_2564)">
<path d="M32.1734 43.783C32.1734 39.5708 35.5876 36.1541 39.8011 36.1541C44.017 36.1541 47.4288 39.5708 47.4288 43.783C47.4288 47.9977 44.017 51.4119 39.8011 51.4119C35.5876 51.4119 32.1734 47.9989 32.1734 43.783ZM61.4143 58.1433L60.3482 51.7515C60.1566 50.5945 59.1826 49.6242 58.0486 49.3452C57.0347 50.2427 55.7054 50.7897 54.2451 50.7897C52.786 50.7897 51.4555 50.2415 50.4428 49.3452C49.3051 49.623 48.3336 50.5945 48.142 51.7515L48.1165 51.9019C47.4834 51.2919 46.6974 50.8334 45.8509 50.626C44.2378 52.0523 42.125 52.9256 39.8023 52.9256C37.4797 52.9256 35.3669 52.0523 33.7538 50.626C32.9072 50.8334 32.1213 51.2919 31.4882 51.9019L31.4627 51.7515C31.2711 50.5945 30.2959 49.6242 29.1619 49.3452C28.1492 50.2427 26.8186 50.7897 25.3596 50.7897C23.8993 50.7897 22.57 50.2415 21.556 49.3452C20.4208 49.623 19.4481 50.5945 19.2565 51.7515L18.1903 58.1433C17.9611 59.5151 18.9132 60.6382 20.3019 60.6382H29.0612L28.3966 64.62C28.0327 66.8019 29.5464 68.5873 31.7574 68.5873H47.846C50.0571 68.5873 51.5707 66.7983 51.2069 64.62L50.5422 60.6382H59.3015C60.6914 60.6357 61.6423 59.5151 61.4143 58.1433ZM54.2439 49.8413C56.8928 49.8413 59.0395 47.6945 59.0395 45.0456C59.0395 42.3979 56.8915 40.25 54.2439 40.25C51.5962 40.25 49.4494 42.3979 49.4494 45.0456C49.4494 47.6945 51.5986 49.8413 54.2439 49.8413ZM25.3571 49.8413C28.0048 49.8413 30.1516 47.6945 30.1516 45.0456C30.1516 42.3979 28.0036 40.25 25.3571 40.25C22.7083 40.25 20.5615 42.3979 20.5615 45.0456C20.5615 47.6945 22.7095 49.8413 25.3571 49.8413Z" fill="#EDAD31"/>
</g>
</g>
<defs>
<clipPath id="clip0_239_2564">
<rect width="81" height="81" fill="white"/>
</clipPath>
<clipPath id="clip1_239_2564">
<rect width="43.2931" height="43.2931" fill="white" transform="translate(18.1552 30.7241)"/>
</clipPath>
</defs>
</svg>
