<svg width="81" height="81" viewBox="0 0 81 81" fill="none" xmlns="http://www.w3.org/2000/svg">
<g clip-path="url(#clip0_239_2580)">
<path d="M64.6939 73.319H2.18561C0.747161 73.319 -0.298857 71.9531 0.0768159 70.5636L14.2742 31.6403C14.5311 30.6878 15.3956 30.0259 16.383 30.0259H78.8912C80.3297 30.0259 81 31.4001 81 32.7813L66.8027 71.7046C66.5457 72.657 65.6812 73.319 64.6939 73.319Z" fill="#EFCE4A"/>
<path d="M70.2019 17.4569H34.9138L27.931 7.68103H2.41883C1.08372 7.68103 0 8.76336 0 10.0999V69.7717C0.0963621 69.7745 0.192724 69.7801 0.286293 69.7857L14.2728 31.6403C14.5297 30.6864 15.3942 30.0259 16.3816 30.0259H72.6207V19.8757C72.6207 18.5392 71.537 17.4569 70.2019 17.4569Z" fill="#EBBA16"/>
</g>
<defs>
<clipPath id="clip0_239_2580">
<rect width="81" height="81" fill="white"/>
</clipPath>
</defs>
</svg>
