<svg width="81" height="81" viewBox="0 0 81 81" fill="none" xmlns="http://www.w3.org/2000/svg">
<g clip-path="url(#clip0_239_2580)">
<path d="M64.6939 73.319H2.18561C0.747161 73.319 -0.298857 71.9531 0.0768159 70.5636L14.2742 31.6403C14.5311 30.6878 15.3956 30.0259 16.383 30.0259H78.8912C80.3297 30.0259 81 31.4001 81 32.7813L66.8027 71.7046C66.5457 72.657 65.6812 73.319 64.6939 73.319Z" fill="#EFCE4A"/>
<path d="M70.2019 17.4569H34.9138L27.931 7.68103H2.41883C1.08372 7.68103 0 8.76336 0 10.0999V69.7717C0.0963621 69.7745 0.192724 69.7801 0.286293 69.7857L14.2728 31.6403C14.5297 30.6864 15.3942 30.0259 16.3816 30.0259H72.6207V19.8757C72.6207 18.5392 71.537 17.4569 70.2019 17.4569Z" fill="#EBBA16"/>
<g opacity="0.5" clip-path="url(#clip1_239_2580)">
<path d="M32.0183 43.0589C32.0183 38.8466 35.4325 35.43 39.6459 35.43C43.8618 35.43 47.2736 38.8466 47.2736 43.0589C47.2736 47.2736 43.8618 50.6878 39.6459 50.6878C35.4325 50.6878 32.0183 47.2748 32.0183 43.0589ZM61.2591 57.4192L60.193 51.0274C60.0014 49.8703 59.0275 48.9 57.8934 48.6211C56.8795 49.5186 55.5502 50.0656 54.0899 50.0656C52.6308 50.0656 51.3003 49.5174 50.2876 48.6211C49.1499 48.8988 48.1784 49.8703 47.9868 51.0274L47.9613 51.1778C47.3282 50.5677 46.5423 50.1093 45.6957 49.9019C44.0826 51.3282 41.9698 52.2014 39.6472 52.2014C37.3245 52.2014 35.2117 51.3282 33.5986 49.9019C32.752 50.1093 31.9661 50.5677 31.333 51.1778L31.3075 51.0274C31.1159 49.8703 30.1407 48.9 29.0067 48.6211C27.994 49.5186 26.6635 50.0656 25.2044 50.0656C23.7441 50.0656 22.4148 49.5174 21.4009 48.6211C20.2656 48.8988 19.2929 49.8703 19.1013 51.0274L18.0352 57.4192C17.8059 58.7909 18.758 59.914 20.1468 59.914H28.9061L28.2414 63.8959C27.8775 66.0778 29.3912 67.8631 31.6022 67.8631H47.6909C49.9019 67.8631 51.4156 66.0742 51.0517 63.8959L50.387 59.914H59.1463C60.5363 59.9116 61.4872 58.7909 61.2591 57.4192ZM54.0887 49.1171C56.7376 49.1171 58.8844 46.9704 58.8844 44.3215C58.8844 41.6738 56.7364 39.5258 54.0887 39.5258C51.441 39.5258 49.2943 41.6738 49.2943 44.3215C49.2943 46.9704 51.4434 49.1171 54.0887 49.1171ZM25.202 49.1171C27.8496 49.1171 29.9964 46.9704 29.9964 44.3215C29.9964 41.6738 27.8484 39.5258 25.202 39.5258C22.5531 39.5258 20.4063 41.6738 20.4063 44.3215C20.4063 46.9704 22.5543 49.1171 25.202 49.1171Z" fill="#EDAD31"/>
</g>
</g>
<defs>
<clipPath id="clip0_239_2580">
<rect width="81" height="81" fill="white"/>
</clipPath>
<clipPath id="clip1_239_2580">
<rect width="43.2931" height="43.2931" fill="white" transform="translate(18 30)"/>
</clipPath>
</defs>
</svg>
