<svg width="43" height="43" viewBox="0 0 43 43" fill="none" xmlns="http://www.w3.org/2000/svg">
<path d="M27.2039 24.5418C27.2039 27.6939 24.6522 30.2457 21.5 30.2457C18.3478 30.2457 15.7961 27.6939 15.7961 24.5418C15.7961 21.3896 18.3478 18.8379 21.5 18.8379C24.6522 18.8379 27.2039 21.3896 27.2039 24.5418ZM38.8766 10.2467C41.1546 10.2467 43 12.0921 43 14.3701V25.1775V34.3426C43 36.7707 41.031 38.7397 38.6029 38.7397H4.39713C1.96899 38.7397 0 36.7707 0 34.3426V25.1687V14.3701C0 12.0921 1.84538 10.2467 4.12341 10.2467H12.3702L12.7587 8.60442C13.3503 6.0615 15.6195 4.26027 18.2331 4.26027H24.7758C27.3893 4.26027 29.6585 6.0615 30.2501 8.60442L30.6298 10.2467H38.8766ZM8.6 16.1978C8.6 15.0588 7.6729 14.1317 6.53388 14.1317C5.38604 14.1317 4.45893 15.0588 4.45893 16.1978C4.45893 17.3369 5.38604 18.264 6.52505 18.264C7.6729 18.2728 8.6 17.3457 8.6 16.1978ZM31.6717 24.5418C31.6717 18.9262 27.1156 14.3701 21.5 14.3701C15.8844 14.3701 11.3283 18.9262 11.3283 24.5418C11.3283 30.1574 15.8844 34.7134 21.5 34.7134C27.1156 34.7134 31.6717 30.1574 31.6717 24.5418Z" fill="#3F3D56"/>
</svg>
