<svg width="42" height="42" viewBox="0 0 42 42" fill="none" xmlns="http://www.w3.org/2000/svg">
<g clip-path="url(#clip0_239_2986)">
<path d="M24.7468 21L41.7258 4.02187C42.0913 3.65596 42.0913 3.06308 41.7258 2.69717L39.3043 0.274319C39.1286 0.0991088 38.8897 0 38.6415 0C38.3928 0 38.1543 0.0991088 37.9787 0.274319L21.0001 17.2529L4.02154 0.274319C3.66979 -0.0774287 3.04726 -0.0769863 2.6964 0.274319L0.275315 2.69717C-0.0905915 3.06308 -0.0905915 3.65596 0.275315 4.02187L17.2539 21L0.275315 37.9781C-0.0905915 38.344 -0.0905915 38.9369 0.275315 39.3028L2.69684 41.7257C2.8725 41.9009 3.11098 42 3.35963 42C3.60829 42 3.84633 41.9009 4.02198 41.7257L21.0006 24.7471L37.9791 41.7257C38.1548 41.9009 38.3937 42 38.6419 42C38.8901 42 39.1291 41.9009 39.3047 41.7257L41.7262 39.3028C42.0917 38.9369 42.0917 38.344 41.7262 37.9781L24.7468 21Z" fill="#3F3D56"/>
</g>
<defs>
<clipPath id="clip0_239_2986">
<rect width="42" height="42" fill="white"/>
</clipPath>
</defs>
</svg>
