<svg width="47" height="47" viewBox="0 0 47 47" fill="none" xmlns="http://www.w3.org/2000/svg">
<g clip-path="url(#clip0_439_2453)">
<path d="M0.15208 44.4796L3.65259 28.3619C3.65259 27.958 3.85455 27.6598 4.15267 27.3617L29.2814 2.23303C31.2047 0.0307815 36.4267 -1.43097 40.0907 2.23303L44.6971 6.83948C47.6783 9.82069 47.6783 14.6676 44.6971 17.6488L19.5684 42.7775C19.3664 42.9794 19.0683 43.1814 18.6644 43.2775L2.45049 46.98C1.4792 47.1243 -0.347994 46.5088 0.15208 44.4796ZM41.8986 14.8503C43.3988 13.3501 43.3988 11.042 41.8986 9.5418L37.2922 4.93535C35.8304 3.4736 33.4454 3.4736 31.9837 4.93535L9.05724 27.8618H11.6634C12.7597 27.8618 13.6637 28.7658 13.6637 29.8621V33.1607H16.9622C18.0586 33.1607 18.9625 34.0646 18.9625 35.161V37.6709L41.8986 14.8503ZM14.9716 39.979V37.1709H11.673C9.94199 37.3344 9.67271 35.5841 9.67271 35.1706V31.8624H6.86461L4.55658 42.3736L14.9716 39.979Z" fill="#3F3D56"/>
</g>
<defs>
<clipPath id="clip0_439_2453">
<rect width="47" height="47" fill="white"/>
</clipPath>
</defs>
</svg>
