<svg width="60" height="60" viewBox="0 0 60 60" fill="none" xmlns="http://www.w3.org/2000/svg">
<path d="M5 15C5 13.6739 5.52678 12.4021 6.46447 11.4645C7.40215 10.5268 8.67392 10 10 10H32.5C33.8261 10 35.0979 10.5268 36.0355 11.4645C36.9732 12.4021 37.5 13.6739 37.5 15V20C37.5 20.663 37.2366 21.2989 36.7678 21.7678C36.2989 22.2366 35.663 22.5 35 22.5C34.337 22.5 33.7011 22.2366 33.2322 21.7678C32.7634 21.2989 32.5 20.663 32.5 20V15H10V45H32.5V40C32.5 39.337 32.7634 38.7011 33.2322 38.2322C33.7011 37.7634 34.337 37.5 35 37.5C35.663 37.5 36.2989 37.7634 36.7678 38.2322C37.2366 38.7011 37.5 39.337 37.5 40V45C37.5 46.3261 36.9732 47.5979 36.0355 48.5355C35.0979 49.4732 33.8261 50 32.5 50H10C8.67392 50 7.40215 49.4732 6.46447 48.5355C5.52678 47.5979 5 46.3261 5 45V15ZM43.2325 20.7325C43.7013 20.2638 44.3371 20.0005 45 20.0005C45.6629 20.0005 46.2987 20.2638 46.7675 20.7325L54.2675 28.2325C54.7362 28.7013 54.9995 29.3371 54.9995 30C54.9995 30.6629 54.7362 31.2987 54.2675 31.7675L46.7675 39.2675C46.296 39.7229 45.6645 39.9749 45.009 39.9692C44.3535 39.9635 43.7265 39.7006 43.263 39.237C42.7994 38.7735 42.5365 38.1465 42.5308 37.491C42.5251 36.8355 42.7771 36.204 43.2325 35.7325L46.465 32.5H22.5C21.837 32.5 21.2011 32.2366 20.7322 31.7678C20.2634 31.2989 20 30.663 20 30C20 29.337 20.2634 28.7011 20.7322 28.2322C21.2011 27.7634 21.837 27.5 22.5 27.5H46.465L43.2325 24.2675C42.7638 23.7987 42.5005 23.1629 42.5005 22.5C42.5005 21.8371 42.7638 21.2013 43.2325 20.7325Z" fill="#F2F2F2"/>
</svg>
