<svg width="61" height="61" viewBox="0 0 61 61" fill="none" xmlns="http://www.w3.org/2000/svg">
<path fill-rule="evenodd" clip-rule="evenodd" d="M13.6484 13.6484C7.09729 20.1995 7.09729 30.8209 13.6484 37.372C20.1994 43.9231 30.8209 43.9231 37.3716 37.372C43.9227 30.8209 43.9227 20.1995 37.3716 13.6484C30.8209 7.09741 20.1994 7.09741 13.6484 13.6484ZM33.0583 33.0586C28.8896 37.2274 22.1305 37.2274 17.9617 33.0586C13.7928 28.8897 13.7928 22.1306 17.9617 17.9618C22.1305 13.793 28.8896 13.793 33.0583 17.9618C37.2274 22.1306 37.2274 28.8897 33.0583 33.0586Z" fill="#353939"/>
<path d="M34.1368 40.6068C32.3501 38.8201 32.3501 35.9235 34.1368 34.1368C35.9235 32.3501 38.8201 32.3501 40.6068 34.1368L51.3901 44.9201C53.1767 46.7068 53.1767 49.6037 51.3901 51.3901C49.6037 53.1767 46.7068 53.1767 44.9201 51.3901L34.1368 40.6068Z" fill="#353939"/>
</svg>
