<svg width="71" height="71" viewBox="0 0 71 71" fill="none" xmlns="http://www.w3.org/2000/svg">
<path d="M56.2083 32.5417H38.4583V14.7917C38.4583 14.0071 38.1467 13.2546 37.5919 12.6998C37.0371 12.145 36.2846 11.8333 35.5 11.8333C34.7154 11.8333 33.9629 12.145 33.4082 12.6998C32.8534 13.2546 32.5417 14.0071 32.5417 14.7917V32.5417H14.7917C14.0071 32.5417 13.2546 32.8534 12.6998 33.4081C12.145 33.9629 11.8333 34.7154 11.8333 35.5C11.8333 36.2846 12.145 37.0371 12.6998 37.5919C13.2546 38.1467 14.0071 38.4583 14.7917 38.4583H32.5417V56.2083C32.5417 56.9929 32.8534 57.7454 33.4082 58.3002C33.9629 58.855 34.7154 59.1667 35.5 59.1667C36.2846 59.1667 37.0371 58.855 37.5919 58.3002C38.1467 57.7454 38.4583 56.9929 38.4583 56.2083V38.4583H56.2083C56.9929 38.4583 57.7454 38.1467 58.3002 37.5919C58.855 37.0371 59.1667 36.2846 59.1667 35.5C59.1667 34.7154 58.855 33.9629 58.3002 33.4081C57.7454 32.8534 56.9929 32.5417 56.2083 32.5417Z" fill="#3F3D56"/>
</svg>
