<svg width="27" height="27" viewBox="0 0 27 27" fill="none" xmlns="http://www.w3.org/2000/svg">
<path d="M13.5 0.000747681C6.04494 0.000747681 0 6.0445 0 13.5002C0 20.9558 6.04434 26.9996 13.5 26.9996C20.9562 26.9996 27 20.9558 27 13.5002C27 6.0445 20.9562 0.000747681 13.5 0.000747681ZM13.5 4.03723C15.9668 4.03723 17.9658 6.03679 17.9658 8.50244C17.9658 10.9687 15.9668 12.9676 13.5 12.9676C11.0343 12.9676 9.03538 10.9687 9.03538 8.50244C9.03538 6.03679 11.0343 4.03723 13.5 4.03723ZM13.497 23.4701C11.0367 23.4701 8.78336 22.5741 7.04531 21.091C6.62191 20.7299 6.3776 20.2003 6.3776 19.6447C6.3776 17.1441 8.40147 15.1427 10.9027 15.1427H16.0985C18.6003 15.1427 20.6165 17.1441 20.6165 19.6447C20.6165 20.2009 20.3733 20.7293 19.9494 21.0904C18.2119 22.5741 15.9579 23.4701 13.497 23.4701Z" fill="#3F3D56"/>
</svg>
