<svg width="269" height="136" viewBox="0 0 269 136" fill="none" xmlns="http://www.w3.org/2000/svg">
<g clip-path="url(#clip0_230_3042)">
<path d="M243.022 110.62H38.4907C35.8761 110.617 33.3693 109.574 31.5204 107.72C29.6716 105.866 28.6316 103.352 28.6286 100.729V22.8934C28.6316 20.2712 29.6716 17.7571 31.5205 15.9029C33.3693 14.0487 35.8761 13.0057 38.4907 13.0027H243.022C245.637 13.0057 248.143 14.0487 249.992 15.9029C251.841 17.7571 252.881 20.2712 252.884 22.8934V100.729C252.881 103.352 251.841 105.866 249.992 107.72C248.143 109.574 245.637 110.617 243.022 110.62Z" fill="white"/>
<path d="M243.022 110.62H38.4907C35.8761 110.617 33.3693 109.574 31.5204 107.72C29.6716 105.866 28.6316 103.352 28.6286 100.729V22.8934C28.6316 20.2712 29.6716 17.7571 31.5205 15.9029C33.3693 14.0487 35.8761 13.0057 38.4907 13.0027H243.022C245.637 13.0057 248.143 14.0487 249.992 15.9029C251.841 17.7571 252.881 20.2712 252.884 22.8934V100.729C252.881 103.352 251.841 105.866 249.992 107.72C248.143 109.574 245.637 110.617 243.022 110.62ZM38.4907 13.8627C36.1026 13.8627 33.8123 14.8142 32.1236 16.5078C30.4349 18.2014 29.4862 20.4983 29.4862 22.8934V100.729C29.4862 101.915 29.7191 103.09 30.1716 104.185C30.6242 105.281 31.2874 106.276 32.1236 107.115C32.9597 107.954 33.9524 108.619 35.0449 109.073C36.1373 109.526 37.3082 109.76 38.4907 109.76H243.022C244.205 109.76 245.375 109.526 246.468 109.073C247.56 108.619 248.553 107.954 249.389 107.115C250.225 106.276 250.889 105.281 251.341 104.185C251.794 103.09 252.027 101.915 252.027 100.729V71.381C252.027 56.1262 245.984 41.4962 235.229 30.7095C224.473 19.9227 209.886 13.8627 194.675 13.8627H38.4907Z" fill="#E6E6E6"/>
<path d="M22.3073 127.19C22.391 126.614 21.7888 126.048 20.9624 125.928C20.136 125.807 19.3982 126.177 19.3146 126.753C19.2309 127.33 19.8331 127.895 20.6595 128.016C21.4859 128.136 22.2237 127.767 22.3073 127.19Z" fill="white"/>
<path d="M32.1467 126.227C32.2304 125.651 31.6283 125.085 30.8018 124.965C29.9754 124.844 29.2377 125.214 29.154 125.791C29.0704 126.367 29.6725 126.932 30.4989 127.053C31.3253 127.173 32.0631 126.804 32.1467 126.227Z" fill="#3F3D56"/>
<path d="M19.613 119.201C19.6966 118.625 19.0945 118.059 18.2681 117.939C17.4417 117.818 16.7039 118.188 16.6203 118.764C16.5366 119.341 17.1388 119.906 17.9652 120.027C18.7916 120.147 19.5294 119.778 19.613 119.201Z" fill="#FF6584"/>
<path d="M15.3375 115.929C15.3415 115.399 15.0471 114.968 14.6799 114.965C14.3128 114.963 14.0119 115.389 14.0079 115.919C14.0039 116.448 14.2983 116.879 14.6655 116.882C15.0326 116.885 15.3335 116.458 15.3375 115.929Z" fill="#E6E6E6"/>
<path d="M13.8876 109.834C13.8916 109.304 13.5972 108.873 13.23 108.87C12.8629 108.867 12.562 109.294 12.558 109.824C12.554 110.353 12.8484 110.784 13.2156 110.787C13.5827 110.79 13.8836 110.363 13.8876 109.834Z" fill="#3F3D56"/>
<path d="M25.1625 120.561C25.1665 120.031 24.8721 119.6 24.505 119.597C24.1378 119.594 23.8369 120.021 23.8329 120.551C23.8289 121.08 24.1233 121.511 24.4905 121.514C24.8577 121.517 25.1585 121.09 25.1625 120.561Z" fill="#E6E6E6"/>
<path d="M20.4077 122.942C20.4117 122.412 20.1173 121.981 19.7501 121.978C19.383 121.975 19.0821 122.402 19.0781 122.932C19.0741 123.461 19.3685 123.892 19.7357 123.895C20.1028 123.898 20.4037 123.471 20.4077 122.942Z" fill="#FF6584"/>
<path d="M27.0266 127.342C27.0306 126.813 26.7362 126.382 26.369 126.379C26.0019 126.376 25.701 126.803 25.697 127.332C25.693 127.861 25.9874 128.293 26.3546 128.296C26.7217 128.298 27.0226 127.871 27.0266 127.342Z" fill="#3F3D56"/>
<path d="M260.017 2.89065C260.199 2.17072 259.51 1.37451 258.478 1.11225C257.446 0.849985 256.462 1.22098 256.28 1.9409C256.098 2.66082 256.788 3.45705 257.819 3.71932C258.851 3.98158 259.835 3.61057 260.017 2.89065Z" fill="white"/>
<path d="M247.416 2.80921C247.598 2.08929 246.909 1.29306 245.877 1.0308C244.845 0.768533 243.861 1.13955 243.679 1.85947C243.497 2.57939 244.186 3.3756 245.218 3.63787C246.25 3.90013 247.234 3.52914 247.416 2.80921Z" fill="#3F3D56"/>
<path d="M262.382 13.3759C262.564 12.6559 261.875 11.8597 260.843 11.5975C259.811 11.3352 258.827 11.7062 258.645 12.4261C258.463 13.146 259.152 13.9423 260.184 14.2045C261.216 14.4668 262.2 14.0958 262.382 13.3759Z" fill="#FF6584"/>
<path d="M265.319 17.3296C265.394 16.659 265.078 16.0732 264.613 16.021C264.147 15.9689 263.71 16.4703 263.635 17.1408C263.56 17.8114 263.877 18.3972 264.342 18.4493C264.807 18.5014 265.245 18.0001 265.319 17.3296Z" fill="#E6E6E6"/>
<path d="M266.357 25.2477C266.432 24.5772 266.116 23.9913 265.65 23.9392C265.185 23.8871 264.748 24.3884 264.673 25.059C264.598 25.7295 264.915 26.3154 265.38 26.3675C265.845 26.4196 266.283 25.9183 266.357 25.2477Z" fill="#3F3D56"/>
<path d="M253.472 10.1568C253.547 9.4862 253.231 8.90036 252.766 8.84823C252.3 8.79611 251.863 9.29745 251.788 9.968C251.713 10.6386 252.03 11.2244 252.495 11.2765C252.96 11.3286 253.398 10.8273 253.472 10.1568Z" fill="#E6E6E6"/>
<path d="M259.814 7.76744C259.889 7.09689 259.572 6.51104 259.107 6.45892C258.642 6.4068 258.204 6.90813 258.13 7.57869C258.055 8.24924 258.372 8.83509 258.837 8.88721C259.302 8.93933 259.739 8.438 259.814 7.76744Z" fill="#FF6584"/>
<path d="M252.002 1.31222C252.076 0.641672 251.76 0.055829 251.295 0.00370645C250.83 -0.0484161 250.392 0.452919 250.317 1.12347C250.242 1.79403 250.559 2.37987 251.024 2.43199C251.489 2.48412 251.927 1.98278 252.002 1.31222Z" fill="#3F3D56"/>
<path d="M110.437 60.2274C110.448 68.0169 107.579 75.5338 102.385 81.3247V81.329C101.65 82.148 100.874 82.9289 100.061 83.6684C99.2277 84.4249 98.3546 85.1355 97.445 85.7971C96.8103 86.2615 96.1586 86.7001 95.4897 87.113C94.6964 87.6075 93.8803 88.0648 93.0413 88.4848C92.4196 88.7987 91.785 89.0911 91.1375 89.3621C87.2727 90.991 83.1222 91.8288 78.93 91.8261C76.5623 91.8288 74.2019 91.5633 71.8936 91.0349C70.8261 90.7915 69.7725 90.49 68.7377 90.1318C68.3389 89.9985 67.9402 89.8523 67.5457 89.6975C65.1537 88.7702 62.8853 87.5497 60.7923 86.0637C56.3682 82.9398 52.8208 78.7259 50.4918 73.8279C48.1629 68.93 47.1309 63.513 47.4952 58.099C47.8596 52.6849 49.608 47.4562 52.5721 42.9165C55.5362 38.3769 59.6161 34.6792 64.4186 32.1799C69.2212 29.6805 74.5846 28.4637 79.9922 28.6465C85.3998 28.8294 90.6693 30.4058 95.293 33.2239C99.9168 36.042 103.739 40.0068 106.392 44.7364C109.044 49.466 110.437 54.801 110.437 60.2274V60.2274Z" fill="#F2F2F2"/>
<path d="M204.736 36.7383H150.28C149.826 36.7376 149.39 36.5561 149.069 36.2336C148.748 35.9111 148.567 35.4739 148.567 35.0181C148.567 34.5624 148.748 34.1252 149.069 33.8027C149.39 33.4802 149.826 33.2987 150.28 33.298H204.736C205.191 33.298 205.627 33.4793 205.949 33.8018C206.27 34.1244 206.451 34.5619 206.451 35.0181C206.451 35.4744 206.27 35.9119 205.949 36.2345C205.627 36.5571 205.191 36.7383 204.736 36.7383Z" fill="#6C63FF"/>
<path d="M204.736 59.96H150.28C149.826 59.9594 149.39 59.7778 149.069 59.4553C148.748 59.1328 148.567 58.6957 148.567 58.2399C148.567 57.7841 148.748 57.347 149.069 57.0245C149.39 56.702 149.826 56.5204 150.28 56.5198H204.736C205.19 56.5204 205.626 56.702 205.947 57.0245C206.268 57.347 206.449 57.7841 206.449 58.2399C206.449 58.6957 206.268 59.1328 205.947 59.4553C205.626 59.7778 205.19 59.9594 204.736 59.96Z" fill="#E6E6E6"/>
<path d="M204.736 83.1818H150.28C149.826 83.1811 149.39 82.9996 149.069 82.6771C148.748 82.3546 148.567 81.9174 148.567 81.4617C148.567 81.0059 148.748 80.5687 149.069 80.2462C149.39 79.9237 149.826 79.7422 150.28 79.7415H204.736C205.191 79.7415 205.627 79.9227 205.949 80.2453C206.27 80.5679 206.451 81.0054 206.451 81.4617C206.451 81.9179 206.27 82.3554 205.949 82.678C205.627 83.0006 205.191 83.1818 204.736 83.1818Z" fill="#E6E6E6"/>
<path d="M68.5932 134.498C62.4456 126.297 58.8923 117.127 58.7759 106.671C58.5778 106.108 58.6107 105.489 58.8673 104.949C59.1239 104.41 59.5833 103.995 60.1446 103.795L81.0991 96.3595C81.661 96.1609 82.2784 96.1938 82.816 96.4512C83.3536 96.7085 83.7675 97.1692 83.9668 97.7322L93.7841 125.559C93.9822 126.122 93.9493 126.742 93.6927 127.281C93.4362 127.82 92.9768 128.235 92.4154 128.435L71.4609 135.871C70.8991 136.069 70.2817 136.036 69.7441 135.779C69.2065 135.522 68.7926 135.061 68.5932 134.498Z" fill="#E6E6E6"/>
<path d="M67.2353 125.523C63.5379 121.774 61.9552 115.086 60.9239 107.633C60.7384 107.106 60.7691 106.526 61.0094 106.021C61.2497 105.516 61.68 105.127 62.2057 104.94L80.2144 98.5494C80.7405 98.3633 81.3188 98.3942 81.8223 98.6352C82.3258 98.8762 82.7134 99.3077 82.9001 99.8349L91.6362 124.597C91.8217 125.125 91.7909 125.705 91.5506 126.21C91.3102 126.714 90.88 127.103 90.3543 127.29L79.1983 131.249C76.8546 132.078 74.2789 131.94 72.0362 130.867C69.7935 129.793 68.0669 127.871 67.2353 125.523Z" fill="white"/>
<path d="M83.1411 113.174L69.1129 118.196C69.0024 118.236 68.8851 118.253 68.7679 118.247C68.6507 118.241 68.5358 118.212 68.4297 118.162C68.3237 118.112 68.2286 118.041 68.1498 117.954C68.0711 117.866 68.0102 117.764 67.9708 117.653C67.9313 117.543 67.914 117.425 67.9199 117.307C67.9257 117.19 67.9546 117.075 68.0048 116.968C68.0551 116.862 68.1258 116.767 68.2128 116.688C68.2998 116.609 68.4015 116.548 68.512 116.508L82.5403 111.486C82.7635 111.406 83.0092 111.418 83.2234 111.52C83.4376 111.622 83.6027 111.805 83.6824 112.029C83.7621 112.253 83.7498 112.499 83.6483 112.714C83.5468 112.929 83.3644 113.094 83.1412 113.174H83.1411Z" fill="#6C63FF"/>
<path d="M70.5515 112.462L67.4653 113.567C67.3547 113.607 67.2374 113.624 67.1201 113.618C67.0028 113.613 66.8878 113.584 66.7816 113.533C66.6755 113.483 66.5803 113.412 66.5015 113.325C66.4226 113.237 66.3617 113.135 66.3222 113.024C66.2828 112.914 66.2655 112.796 66.2714 112.678C66.2772 112.561 66.3062 112.445 66.3565 112.339C66.4069 112.232 66.4776 112.137 66.5648 112.058C66.6519 111.979 66.7537 111.918 66.8644 111.879L69.9506 110.774C70.0611 110.734 70.1784 110.717 70.2957 110.722C70.413 110.728 70.528 110.757 70.6342 110.808C70.7403 110.858 70.8356 110.929 70.9144 111.016C70.9932 111.103 71.0541 111.205 71.0936 111.316C71.1331 111.427 71.1504 111.545 71.1445 111.663C71.1386 111.78 71.1097 111.896 71.0593 112.002C71.009 112.108 70.9382 112.204 70.8511 112.283C70.7639 112.362 70.6621 112.423 70.5515 112.462Z" fill="#6C63FF"/>
<path d="M85.7828 120.596L71.7545 125.618C71.5314 125.698 71.2858 125.686 71.0718 125.584C70.8578 125.482 70.6929 125.299 70.6133 125.075C70.5336 124.852 70.5458 124.605 70.6472 124.391C70.7485 124.176 70.9307 124.01 71.1537 123.93L85.1819 118.908C85.4051 118.829 85.6506 118.841 85.8646 118.943C86.0786 119.045 86.2435 119.228 86.3232 119.451C86.4028 119.675 86.3906 119.921 86.2893 120.136C86.188 120.351 86.0058 120.516 85.7828 120.596Z" fill="#6C63FF"/>
<path d="M84.462 116.885L70.4337 121.907C70.2105 121.987 69.9648 121.975 69.7506 121.873C69.5364 121.771 69.3713 121.588 69.2916 121.365C69.2119 121.141 69.2242 120.894 69.3257 120.679C69.4272 120.465 69.6096 120.299 69.8328 120.219L83.8611 115.197C83.9717 115.157 84.0889 115.14 84.2062 115.146C84.3235 115.152 84.4385 115.18 84.5447 115.231C84.6509 115.281 84.7461 115.352 84.8249 115.439C84.9037 115.527 84.9646 115.629 85.0041 115.74C85.0436 115.851 85.0609 115.968 85.055 116.086C85.0491 116.204 85.0202 116.319 84.9698 116.425C84.9195 116.532 84.8487 116.627 84.7616 116.706C84.6744 116.785 84.5726 116.846 84.462 116.885Z" fill="#6C63FF"/>
<path d="M71.7236 45.9315C72.1804 49.6279 74.7343 52.6757 78.4483 52.6757C80.2318 52.6757 81.9423 51.9652 83.2034 50.7004C84.4645 49.4356 85.173 47.7201 85.173 45.9315C85.173 42.2067 82.1463 39.5316 78.4483 39.1872C74.5244 38.8218 71.1371 41.1857 71.7236 45.9315Z" fill="#2F2E41"/>
<path d="M84.3026 91.366C80.1849 92.0759 75.9679 91.9634 71.8936 91.0349C73.8274 89.9641 79.6932 90.6221 84.3026 91.366Z" fill="#2F2E41"/>
<path d="M58.1292 103.229L61.3595 95.3997L63.9045 96.8177L62.3675 104.782C62.5214 105.287 62.532 105.824 62.398 106.334C62.2639 106.845 61.9906 107.307 61.6088 107.67C61.227 108.033 60.7518 108.282 60.2366 108.389C59.7214 108.496 59.1867 108.457 58.6925 108.276C58.1983 108.095 57.7643 107.779 57.4393 107.364C57.1142 106.949 56.911 106.452 56.8525 105.927C56.794 105.403 56.8824 104.873 57.108 104.396C57.3335 103.919 57.6872 103.515 58.1292 103.229Z" fill="#FFB6B6"/>
<path d="M91.5449 82.0429V82.0472C91.4291 84.7736 91.2704 87.3667 91.1375 89.3621C87.2727 90.991 83.1222 91.8288 78.93 91.8261C76.5623 91.8288 74.2019 91.5633 71.8936 91.0349C70.8261 90.7915 69.7725 90.49 68.7377 90.1318C68.8818 90.0386 69.0375 89.9649 69.2008 89.9125C70.7444 89.3879 69.2179 88.9105 69.2308 88.4117C69.278 86.5884 69.7797 84.3995 70.4271 82.3009L67.5456 89.6975L66.0449 93.542C66.0449 93.542 66.0964 96.8618 65.1444 95.847C64.1883 94.8321 64.2568 98.1175 64.2568 98.1175C63.9597 98.3299 63.7039 98.5952 63.5022 98.9002C63.4174 99.0375 63.3853 99.2011 63.4121 99.3603V99.3646C63.4552 99.4897 63.5401 99.596 63.6523 99.6656C64.2997 100.104 63.3693 101.265 62.9576 101.726C62.8462 101.85 62.7733 101.923 62.7733 101.923L58.8155 101.639V101.562C58.8327 101.093 58.9399 98.625 59.5531 98.0358C60.2263 97.3865 59.8961 96.3587 59.8961 96.3587C59.8961 96.3587 61.6541 94.7977 60.4749 93.5291C60.0033 93.0174 60.2134 89.9856 60.7922 86.0637C62.0572 77.4115 65.0887 64.4245 66.4008 64.6094C66.6711 63.2921 67.2991 62.0754 68.2154 61.0935C69.1317 60.1115 70.3007 59.4025 71.5934 59.0448L75.8684 57.8665L76.6316 54.8434H82.6518L83.698 56.8301L88.0845 58.8169L88.1403 58.8427L88.2775 58.9029L88.3289 59.0663C88.3289 59.0663 88.3246 59.0706 88.3289 59.0706L90.7687 66.7553C91.8664 68.0196 91.8236 75.4075 91.5449 82.0429Z" fill="#6C63FF"/>
<path d="M101.796 97.5279L97.7197 90.1066L100.414 88.9998L105.654 95.1796C106.143 95.3744 106.568 95.702 106.881 96.1258C107.195 96.5496 107.384 97.0526 107.428 97.5784C107.472 98.1042 107.369 98.6319 107.13 99.1022C106.892 99.5724 106.527 99.9666 106.077 100.24C105.628 100.514 105.111 100.657 104.584 100.652C104.058 100.647 103.544 100.496 103.099 100.214C102.654 99.9319 102.297 99.5312 102.067 99.0567C101.836 98.5823 101.743 98.0528 101.796 97.5279Z" fill="#FFB6B6"/>
<path d="M88.0853 58.7576C88.8104 60.0643 95.442 63.425 94.2927 66.7989C94.2927 66.7989 100.523 86.3469 101.333 86.2193C102.143 86.0917 102.934 88.1109 102.934 88.1109C102.934 88.1109 102.762 89.4288 103.267 88.8811C103.773 88.3335 103.652 89.769 103.652 89.769C103.652 89.769 103.41 91.0361 104.051 90.6916C104.693 90.3471 103.849 92.7719 103.849 92.7719L99.9934 94.5927L99.2607 93.499C99.2607 93.499 97.6951 93.2 98.4318 92.9631C99.1685 92.7262 97.739 91.929 97.739 91.929C97.739 91.929 96.2435 90.9096 96.4519 89.2215C96.6603 87.5334 92.5711 84.2148 92.5711 84.2148C89.76 78.6484 88.2221 72.9335 88.2275 67.0384L88.0853 58.7576Z" fill="#6C63FF"/>
<path d="M79.1916 53.0762C82.485 53.0762 85.1548 50.3986 85.1548 47.0957C85.1548 43.7927 82.485 41.1151 79.1916 41.1151C75.8983 41.1151 73.2284 43.7927 73.2284 47.0957C73.2284 50.3986 75.8983 53.0762 79.1916 53.0762Z" fill="#FFB6B6"/>
<path d="M73.0168 47.7472C73.2056 49.0468 74.31 50.86 74.0513 50.86C73.7927 50.86 71.9538 45.5026 73.7927 45.1533C75.1266 44.8999 75.4247 45.1222 76.6714 44.58L76.4955 44.746C77.3206 45.3478 78.469 44.9769 79.4104 44.5852C80.3545 44.1961 81.5003 43.8252 82.3279 44.4244C82.8478 44.8005 83.0676 45.4542 83.3909 46.0093C83.7143 46.567 84.3117 47.0935 84.9273 46.9224C85.1672 46.8294 85.3715 46.6626 85.5109 46.4459C85.6503 46.2291 85.7177 45.9737 85.7032 45.7162C85.7006 45.2026 85.0338 44.714 85.2584 44.2532C85.9239 42.8876 85.3254 41.9568 83.8746 41.3142C83.347 41.2338 82.8194 41.1517 82.2917 41.0678C82.5682 40.6837 82.9034 40.3458 83.2849 40.0666C83.1237 39.6521 82.845 39.2941 82.4831 39.0368C82.0361 38.8283 81.5378 38.7562 81.0502 38.8292C79.9588 38.8863 78.8681 38.9434 77.7784 39.0004C76.9668 38.9859 76.1612 39.1432 75.4144 39.4622C74.5143 39.9265 73.9246 40.8318 73.4953 41.7526C72.5331 43.8226 72.6857 45.4879 73.0168 47.7472Z" fill="#2F2E41"/>
<path d="M222.187 43.8246H132.508C132.409 43.8246 132.315 43.7853 132.245 43.7153C132.175 43.6452 132.136 43.5502 132.136 43.4512C132.136 43.3522 132.175 43.2572 132.245 43.1872C132.315 43.1171 132.409 43.0778 132.508 43.0778H222.187C222.286 43.0778 222.381 43.1171 222.45 43.1872C222.52 43.2572 222.56 43.3522 222.56 43.4512C222.56 43.5502 222.52 43.6452 222.45 43.7153C222.381 43.7853 222.286 43.8246 222.187 43.8246Z" fill="#E6E6E6"/>
<path d="M222.187 66.977H132.508C132.409 66.977 132.315 66.9376 132.245 66.8676C132.175 66.7976 132.136 66.7026 132.136 66.6035C132.136 66.5045 132.175 66.4095 132.245 66.3395C132.315 66.2695 132.409 66.2301 132.508 66.2301H222.187C222.286 66.2301 222.381 66.2695 222.45 66.3395C222.52 66.4095 222.56 66.5045 222.56 66.6035C222.56 66.7026 222.52 66.7976 222.45 66.8676C222.381 66.9376 222.286 66.977 222.187 66.977Z" fill="#E6E6E6"/>
<path d="M222.187 90.1291H132.508C132.409 90.1291 132.315 90.0898 132.245 90.0197C132.175 89.9497 132.136 89.8547 132.136 89.7557C132.136 89.6566 132.175 89.5617 132.245 89.4916C132.315 89.4216 132.409 89.3823 132.508 89.3823H222.187C222.286 89.3823 222.381 89.4216 222.45 89.4916C222.52 89.5617 222.56 89.6566 222.56 89.7557C222.56 89.8547 222.52 89.9497 222.45 90.0197C222.381 90.0898 222.286 90.1291 222.187 90.1291Z" fill="#E6E6E6"/>
<path d="M235.535 88.6488C232.252 88.6488 229.077 87.4729 226.582 85.333C225.75 84.6184 224.863 83.3762 223.946 81.641C223.361 80.5233 223.033 79.2882 222.987 78.0268C222.941 76.7653 223.177 75.5095 223.679 74.3517C223.195 74.845 222.661 75.285 222.084 75.6641L221.792 75.8587L221.775 75.5079C221.764 75.2798 221.758 75.0525 221.758 74.8322C221.758 73.5341 222.737 72.2169 222.286 71.0171C220.383 65.96 214.348 60.9343 223.095 53.1078C223.904 52.3838 222.823 50.9362 222.823 49.8408C222.823 39.1057 237.952 20.5335 242.239 30.372C247.527 42.5054 256.637 41.2076 260.673 43.7137L260.732 43.891L260.559 43.961C259.676 44.3333 258.746 44.5815 257.795 44.6985C258.808 44.9058 259.843 44.9928 260.877 44.9575L261.038 44.9519L261.077 45.1082C261.461 46.6561 261.656 48.2455 261.656 49.8408L261.655 50.0133C261.651 51.225 261.902 52.4239 262.392 53.5318C262.881 54.6397 263.598 55.6317 264.495 56.4431C265.913 57.7392 267.045 59.3172 267.821 61.0766C268.596 62.8359 268.998 64.738 269 66.6617C269 68.9375 267.458 71.9249 266.164 74.0303C265.836 74.5666 265.391 75.0214 264.863 75.3608C264.335 75.7001 263.737 75.915 263.114 75.9895C262.524 76.0641 261.925 76.0078 261.359 75.8244C260.793 75.6411 260.274 75.3353 259.839 74.9286C260.452 76.1635 261.25 77.2967 262.206 78.2884L262.382 78.4708L262.163 78.5989C260.057 79.8307 257.662 80.4794 255.223 80.4784L255.081 80.478C253.293 80.4595 251.519 80.7991 249.864 81.4767C248.208 82.1543 246.705 83.1564 245.44 84.4243C244.153 85.7544 242.613 86.8132 240.913 87.5386C239.212 88.264 237.383 88.6415 235.535 88.6488Z" fill="#E6E6E6"/>
<path d="M230.795 110.529C230.736 110.529 230.678 110.508 230.633 110.468C230.588 110.429 230.559 110.375 230.55 110.316C229.903 104.522 229.864 98.6753 230.435 92.873C231.29 83.7198 234.036 70.5358 242.263 59.708C242.282 59.6821 242.307 59.6603 242.335 59.6439C242.363 59.6274 242.394 59.6168 242.427 59.6124C242.459 59.608 242.492 59.6101 242.523 59.6184C242.555 59.6267 242.584 59.6412 242.61 59.661C242.636 59.6808 242.658 59.7055 242.674 59.7337C242.69 59.7619 242.701 59.793 242.705 59.8254C242.71 59.8577 242.708 59.8906 242.699 59.9221C242.691 59.9537 242.677 59.9833 242.657 60.0092C234.501 70.7435 231.777 83.8307 230.928 92.9194C230.36 98.6829 230.398 104.49 231.041 110.246C231.046 110.281 231.043 110.317 231.033 110.351C231.023 110.385 231.006 110.417 230.983 110.444C230.959 110.471 230.931 110.492 230.898 110.507C230.866 110.522 230.831 110.529 230.795 110.529Z" fill="#3F3D56"/>
<path d="M237.509 74.9811C237.456 74.9811 237.405 74.9646 237.363 74.9337C237.321 74.9029 237.289 74.8594 237.273 74.8095C237.257 74.7596 237.257 74.7058 237.273 74.6559C237.289 74.606 237.321 74.5625 237.363 74.5316C239.707 72.9403 242.239 71.6475 244.901 70.6829C249.061 69.1558 255.385 67.7714 261.896 69.8497C261.927 69.8596 261.956 69.8755 261.981 69.8965C262.006 69.9176 262.026 69.9433 262.041 69.9723C262.056 70.0013 262.065 70.0329 262.068 70.0654C262.071 70.0979 262.067 70.1307 262.057 70.1617C262.047 70.1928 262.031 70.2217 262.01 70.2466C261.989 70.2716 261.964 70.2921 261.935 70.3071C261.906 70.3221 261.874 70.3312 261.842 70.334C261.81 70.3367 261.777 70.3331 261.746 70.3232C255.368 68.2876 249.158 69.6491 245.072 71.1496C242.452 72.0977 239.961 73.3688 237.654 74.9336C237.612 74.9645 237.561 74.9811 237.509 74.9811Z" fill="#3F3D56"/>
<path d="M226.169 46.6567C226.166 46.6044 226.178 46.5522 226.206 46.5076C226.234 46.463 226.275 46.4283 226.323 46.4085C226.371 46.3887 226.425 46.3848 226.476 46.3974C226.527 46.41 226.572 46.4383 226.606 46.4785C228.357 48.7087 229.825 51.1486 230.976 53.7421C232.795 57.7925 234.627 64.0193 233.029 70.682C233.021 70.7138 233.008 70.7438 232.989 70.7703C232.969 70.7968 232.945 70.8192 232.917 70.8363C232.89 70.8534 232.859 70.8649 232.827 70.87C232.794 70.8751 232.762 70.8738 232.73 70.8662C232.698 70.8585 232.668 70.8447 232.642 70.8254C232.616 70.8062 232.593 70.7819 232.576 70.754C232.559 70.7261 232.548 70.6951 232.543 70.6628C232.538 70.6306 232.539 70.5976 232.547 70.5658C234.112 64.0396 232.311 57.9259 230.524 53.9461C229.393 51.3942 227.949 48.9934 226.227 46.7988C226.193 46.7588 226.173 46.709 226.169 46.6567Z" fill="#3F3D56"/>
<path d="M23.5598 83.6778C22.2954 82.4099 20.7915 81.4078 19.1361 80.7302C17.4807 80.0526 15.7072 79.7131 13.9193 79.7316L13.7765 79.7319C11.3382 79.7329 8.94333 79.0843 6.83695 77.8524L6.61777 77.7244L6.7943 77.5419C7.75006 76.5502 8.54812 75.4171 9.16051 74.1821C8.72558 74.5888 8.20682 74.8946 7.64097 75.078C7.07512 75.2613 6.476 75.3176 5.88603 75.243C5.26317 75.1685 4.66521 74.9536 4.137 74.6143C3.60878 74.275 3.16403 73.8201 2.83612 73.2838C1.54227 71.1784 -1.52588e-05 68.1911 -1.52588e-05 65.9152C0.00199829 63.9916 0.403604 62.0895 1.17921 60.3301C1.95481 58.5707 3.08741 56.9927 4.50478 55.6967C5.4021 54.8852 6.11884 53.8932 6.60825 52.7853C7.09765 51.6775 7.34875 50.4786 7.34517 49.2668L7.34445 49.0944C7.34421 47.4991 7.5386 45.9097 7.92329 44.3617L7.96234 44.2054L8.12271 44.211C9.15684 44.2463 10.1915 44.1594 11.2054 43.952C10.2544 43.835 9.32404 43.5869 8.44075 43.2146L8.26823 43.1446L8.32678 42.9673C12.3627 40.4611 21.4729 41.7589 26.7607 29.6256C31.0484 19.7871 46.1769 38.3592 46.1769 49.0944C46.1769 50.1898 45.096 51.6373 45.9051 52.3613C54.6524 60.1878 48.6169 65.2135 46.714 70.2706C46.2625 71.4704 47.2415 72.7876 47.2415 74.0857C47.2415 74.306 47.2359 74.5333 47.2248 74.7615L47.208 75.1122L46.9163 74.9176C46.3394 74.5385 45.8045 74.0986 45.321 73.6053C45.8226 74.763 46.059 76.0188 46.0128 77.2803C45.9666 78.5418 45.639 79.7768 45.054 80.8945C44.1373 82.6297 43.2504 83.872 42.4181 84.5865C39.7517 86.8749 36.3144 88.0553 32.8091 87.8864C29.3037 87.7175 25.9951 86.212 23.5598 83.6778H23.5598Z" fill="#E6E6E6"/>
<path d="M38.2046 109.783C38.2642 109.783 38.3218 109.761 38.3667 109.722C38.4117 109.683 38.4411 109.629 38.4495 109.569C39.0974 103.775 39.1361 97.9289 38.5651 92.1266C37.71 82.9733 34.9638 69.7893 26.7372 58.9616C26.7175 58.9356 26.6929 58.9138 26.6648 58.8974C26.6366 58.881 26.6056 58.8703 26.5733 58.8659C26.5411 58.8615 26.5083 58.8636 26.4768 58.8719C26.4454 58.8803 26.4159 58.8948 26.39 58.9145C26.3641 58.9343 26.3424 58.959 26.326 58.9872C26.3096 59.0154 26.299 59.0466 26.2946 59.0789C26.2903 59.1112 26.2923 59.1441 26.3006 59.1757C26.3089 59.2072 26.3234 59.2368 26.3431 59.2628C34.4986 69.997 37.2226 83.0843 38.0718 92.1729C38.6397 97.9364 38.6019 103.744 37.959 109.499C37.954 109.535 37.9566 109.571 37.9667 109.605C37.9768 109.639 37.994 109.67 38.0173 109.697C38.0406 109.724 38.0694 109.746 38.1017 109.761C38.134 109.775 38.1691 109.783 38.2046 109.783Z" fill="#3F3D56"/>
<path d="M31.4912 74.2346C31.5435 74.2347 31.5946 74.2181 31.6369 74.1873C31.6793 74.1564 31.7108 74.113 31.727 74.063C31.7432 74.0131 31.7432 73.9594 31.7271 73.9094C31.7109 73.8595 31.6794 73.816 31.6371 73.7851C29.293 72.1939 26.7607 70.9011 24.0985 69.9365C19.9394 68.4094 13.6148 67.0249 7.10372 69.1032C7.07272 69.1131 7.04396 69.129 7.0191 69.15C6.99423 69.1711 6.97375 69.1968 6.9588 69.2258C6.94386 69.2548 6.93475 69.2864 6.932 69.319C6.92925 69.3515 6.93292 69.3842 6.94278 69.4153C6.95265 69.4464 6.96852 69.4752 6.9895 69.5002C7.01047 69.5251 7.03615 69.5456 7.06505 69.5606C7.09395 69.5756 7.1255 69.5847 7.15792 69.5875C7.19034 69.5903 7.22297 69.5866 7.25397 69.5767C13.6316 67.5412 19.8416 68.9027 23.9282 70.4032C26.5475 71.3512 29.0392 72.6223 31.3458 74.1872C31.388 74.218 31.4389 74.2347 31.4912 74.2346Z" fill="#3F3D56"/>
<path d="M42.8307 45.9103C42.8345 45.8579 42.8217 45.8057 42.7941 45.7611C42.7665 45.7165 42.7255 45.6818 42.677 45.662C42.6285 45.6422 42.5751 45.6384 42.5242 45.6509C42.4734 45.6635 42.4279 45.6919 42.3941 45.732C40.6428 47.9622 39.1747 50.4021 38.0237 52.9956C36.2054 57.0461 34.3731 63.2729 35.9711 69.9356C35.9786 69.9674 35.9924 69.9974 36.0115 70.0238C36.0306 70.0503 36.0547 70.0728 36.0825 70.0899C36.1103 70.107 36.1411 70.1184 36.1733 70.1235C36.2055 70.1287 36.2384 70.1274 36.2701 70.1197C36.3018 70.1121 36.3316 70.0982 36.358 70.079C36.3843 70.0597 36.4066 70.0355 36.4236 70.0076C36.4406 69.9797 36.4519 69.9487 36.4569 69.9164C36.4619 69.8841 36.4605 69.8511 36.4528 69.8194C34.8877 63.2932 36.689 57.1794 38.4756 53.1997C39.6071 50.6478 41.0506 48.2469 42.773 46.0523C42.8067 46.0123 42.8269 45.9626 42.8307 45.9103Z" fill="#3F3D56"/>
</g>
<defs>
<clipPath id="clip0_230_3042">
<rect width="269" height="136" fill="white"/>
</clipPath>
</defs>
</svg>
