<svg width="42" height="42" viewBox="0 0 42 42" fill="none" xmlns="http://www.w3.org/2000/svg">
<path d="M40.8882 16.4181H34.9529C34.7205 15.7123 34.4364 15.0297 34.1043 14.3754L38.3031 10.1767C38.7372 9.74258 38.7372 9.03888 38.3031 8.60488L33.3949 3.69675C32.9608 3.26265 32.2571 3.26265 31.8231 3.69675L27.6244 7.89549C26.9701 7.56339 26.2877 7.27931 25.5818 7.04691V1.11169C25.5819 0.497794 25.0843 0.000190735 24.4704 0.000190735H17.5294C16.9156 0.000190735 16.4179 0.497794 16.4179 1.1116V7.04691C15.7121 7.27922 15.0296 7.56339 14.3752 7.89549L10.1766 3.69684C9.74248 3.26274 9.03878 3.26274 8.60478 3.69684L3.69665 8.60497C3.26255 9.03897 3.26255 9.74277 3.69665 10.1768L7.8953 14.3754C7.5632 15.0297 7.27903 15.7123 7.04672 16.4181H1.1115C0.497603 16.4181 0 16.9158 0 17.5296V24.4706C0 25.0844 0.497603 25.582 1.1115 25.582H7.04681C7.27921 26.2878 7.56329 26.9703 7.8954 27.6247L3.69674 31.8233C3.26265 32.2573 3.26265 32.9611 3.69674 33.3951L8.60487 38.3033C9.03897 38.7373 9.74267 38.7373 10.1767 38.3033L14.3753 34.1046C15.0296 34.4367 15.7121 34.7209 16.418 34.9532V40.8885C16.418 41.5023 16.9156 41.9999 17.5295 41.9999H24.4705C25.0843 41.9999 25.582 41.5023 25.582 40.8885V34.9532C26.2878 34.7209 26.9703 34.4367 27.6246 34.1046L31.8233 38.3033C32.2574 38.7373 32.9611 38.7373 33.3951 38.3033L38.3033 33.3951C38.7374 32.961 38.7374 32.2573 38.3033 31.8233L34.1046 27.6247C34.4367 26.9704 34.7208 26.2879 34.9532 25.5821H40.8885C41.5023 25.5821 42 25.0845 42 24.4707V17.5297C41.9997 16.9158 41.5021 16.4181 40.8882 16.4181ZM20.9999 26.5335C17.9438 26.5335 15.4663 24.0561 15.4663 21C15.4663 17.9439 17.9438 15.4664 20.9999 15.4664C24.056 15.4664 26.5334 17.9439 26.5334 21C26.5334 24.0561 24.056 26.5335 20.9999 26.5335Z" fill="#3F3D56"/>
</svg>
