<svg width="45" height="45" viewBox="0 0 45 45" fill="none" xmlns="http://www.w3.org/2000/svg">
<path d="M36.7432 14.2432C34.0523 14.2432 31.6687 15.5363 30.162 17.5289L16.2169 10.4238C16.4046 9.73195 16.5136 9.00844 16.5136 8.2568C16.5136 3.69703 12.8166 0 8.2568 0C3.69703 0 0 3.69703 0 8.2568C0 12.8166 3.69703 16.5136 8.2568 16.5136C11.0616 16.5136 13.5352 15.1123 15.0279 12.9748L28.8654 20.025C28.62 20.8062 28.4871 21.6373 28.4871 22.5C28.4871 23.3627 28.62 24.1938 28.8654 24.975L15.0279 32.0259C13.5359 29.8884 11.0616 28.4864 8.2568 28.4864C3.69703 28.4864 0 32.1834 0 36.7432C0 41.303 3.69703 45 8.2568 45C12.8166 45 16.5136 41.303 16.5136 36.7432C16.5136 35.9923 16.4046 35.268 16.2169 34.5769L30.162 27.4711C31.6695 29.4637 34.0523 30.7568 36.7432 30.7568C41.303 30.7568 45 27.0598 45 22.5C45 17.9395 41.303 14.2432 36.7432 14.2432ZM8.2568 13.7011C5.25445 13.7011 2.8125 11.2584 2.8125 8.2568C2.8125 5.25445 5.25445 2.8125 8.2568 2.8125C11.2584 2.8125 13.7011 5.25445 13.7011 8.2568C13.7011 11.2584 11.2584 13.7011 8.2568 13.7011ZM8.2568 42.1875C5.25445 42.1875 2.8125 39.7455 2.8125 36.7432C2.8125 33.7416 5.25516 31.2989 8.2568 31.2989C11.2584 31.2989 13.7011 33.7416 13.7011 36.7432C13.7011 39.7455 11.2584 42.1875 8.2568 42.1875ZM36.7432 27.9443C33.7416 27.9443 31.2989 25.5016 31.2989 22.5C31.2989 19.4977 33.7416 17.0557 36.7432 17.0557C39.7455 17.0557 42.1875 19.4977 42.1875 22.5C42.1875 25.5016 39.7455 27.9443 36.7432 27.9443Z" fill="#3F3D56"/>
</svg>
